HIERARCHY
ROOT Hips
{
	OFFSET	0.00	0.00	0.00
	CHANNELS 6 Xposition Yposition Zposition Zrotation Xrotation Yrotation
	JOINT LeftHip
	{
		OFFSET	 3.430000	 0.000000	 0.000000
		CHANNELS 3 Zrotation Xrotation Yrotation
		JOINT LeftKnee
		{
			OFFSET	 0.000000	-18.469999	 0.000000
			CHANNELS 3 Zrotation Xrotation Yrotation
			JOINT LeftAnkle
			{
				OFFSET	 0.000000	-17.950001	 0.000000
				CHANNELS 3 Zrotation Xrotation Yrotation
				End Site 
				{
					OFFSET	 0.000000	-3.119996	 0.000000
				}
			}
		}
	}
	JOINT RightHip
	{
		OFFSET	-3.430000	 0.000000	 0.000000
		CHANNELS 3 Zrotation Xrotation Yrotation
		JOINT RightKnee
		{
			OFFSET	 0.000000	-18.809999	 0.000000
			CHANNELS 3 Zrotation Xrotation Yrotation
			JOINT RightAnkle
			{
				OFFSET	 0.000000	-17.570000	 0.000000
				CHANNELS 3 Zrotation Xrotation Yrotation
				End Site 
				{
					OFFSET	 0.000000	-3.250000	 0.000000
				}
			}
		}
	}
	JOINT Chest
	{
		OFFSET	 0.000000	 4.570000	 0.000000
		CHANNELS 3 Zrotation Xrotation Yrotation
		JOINT LeftCollar
		{
			OFFSET	 1.060000	 15.330000	 1.760000
			CHANNELS 3 Zrotation Xrotation Yrotation
			JOINT LeftShoulder
			{
				OFFSET	 5.810000	 0.000000	 0.000000
				CHANNELS 3 Zrotation Xrotation Yrotation
				JOINT LeftElbow
				{
					OFFSET	 0.000000	-12.080000	 0.000000
					CHANNELS 3 Zrotation Xrotation Yrotation
					JOINT LeftWrist
					{
						OFFSET	 0.000000	-9.820000	 0.000000
						CHANNELS 3 Zrotation Xrotation Yrotation
						End Site 
						{
							OFFSET	 0.000000	-7.369996	 0.000000
						}
					}
				}
			}
		}
		JOINT RightCollar
		{
			OFFSET	-1.060000	 15.330000	 1.760000
			CHANNELS 3 Zrotation Xrotation Yrotation
			JOINT RightShoulder
			{
				OFFSET	-6.060000	 0.000000	 0.000000
				CHANNELS 3 Zrotation Xrotation Yrotation
				JOINT RightElbow
				{
					OFFSET	 0.000000	-11.900000	 0.000000
					CHANNELS 3 Zrotation Xrotation Yrotation
					JOINT RightWrist
					{
						OFFSET	 0.000000	-9.520000	 0.000000
						CHANNELS 3 Zrotation Xrotation Yrotation
						End Site 
						{
							OFFSET	 0.000000	-7.140012	 0.000000
						}
					}
				}
			}
		}
		JOINT Neck
		{
			OFFSET	 0.000000	 17.620001	 0.000000
			CHANNELS 3 Zrotation Xrotation Yrotation
			JOINT Head
			{
				OFFSET	 0.000000	 5.190000	 0.000000
				CHANNELS 3 Zrotation Xrotation Yrotation
				End Site 
				{
					OFFSET	 0.000000	 4.140008	 0.000000
				}
			}
		}
	}
}

MOTION
Frames: 21
Frame Time: 0.033333
-22.2564 0.8413 -46.3474 9.68419 8.5015 119.704 -8.82429 -3.12866 6.37744 13.0543 20.8124 -1.70199 -5.5255 -4.05669 1.14347 -18.4692 -6.34909 -24.5035 -1.73235 18.0272 2.77134 9.97028 0.673134 10.3653 -0.286988 22.0213 -0.739558 0 0 0 81.452 -24.5457 101.515 -59.1701 -47.0971 -40.892 12.3559 -23.3926 25.05 0 0 0 -74.2852 12.2792 -78.1883 44.6525 -55.0139 30.7584 -28.3982 -30.5083 -11.7993 0 0 0 -1.59492 -10.7926 -10.6764 
-22.9068 0.9945 -46.3951 9.1226 7.75192 119.205 -8.63357 -4.99792 7.84501 13.0651 20.5671 -1.86854 -4.75594 -3.15275 0.328397 -18.627 -7.54391 -24.0026 -1.555 17.7307 2.47115 10.8786 1.30781 10.2949 0.105788 23.5873 -0.504774 0 0 0 85.824 -24.5819 105.595 -46.7305 -45.8584 -31.8737 13.4032 -24.3296 26.4484 0 0 0 -75.3362 9.1501 -81.6987 36.237 -51.7012 23.5308 -31.861 -28.7388 -15.7468 0 0 0 -1.52181 -13.097 -10.4522 
-23.4743 1.1903 -46.4704 8.68755 7.02518 118.47 -8.20478 -6.62549 9.45955 13.0059 20.0871 -1.99691 -4.04453 -2.14593 -0.446813 -18.3867 -8.0284 -23.3921 -1.31731 17.4089 2.14793 11.5775 1.32268 9.85865 0.534766 24.762 -0.195693 0 0 0 89.0555 -26.2466 107.842 -35.7083 -42.268 -23.1193 13.8902 -25.5037 26.2049 0 0 0 -75.7726 7.85799 -82.6986 28.039 -47.766 16.7718 -34.2539 -27.5457 -18.2576 0 0 0 -1.4758 -14.8719 -10.179 
-23.9941 1.3485 -46.5759 8.4573 6.17827 117.631 -7.57502 -8.01005 10.9607 12.9599 19.5198 -2.0315 -3.37505 -1.1428 -1.08061 -17.8457 -7.89488 -22.9942 -1.19151 17.395 1.70049 12.1132 0.746727 9.40471 1.09492 25.3538 -0.0308737 0 0 0 90.5296 -29.2922 105.567 -26.425 -36.1711 -14.9737 14.0579 -26.4829 25.1122 0 0 0 -76.3806 8.63845 -81.0353 20.712 -42.4696 10.4993 -36.0588 -26.4103 -19.6644 0 0 0 -1.3462 -15.811 -9.73957 
-24.3984 1.4766 -46.7065 8.60043 5.43826 116.686 -6.95998 -8.68822 12.1513 12.9105 18.871 -2.06515 -2.88437 -0.322022 -1.25852 -17.1274 -6.94451 -22.3523 -1.09505 17.9831 1.15798 12.3593 -0.630867 8.57592 1.78361 25.3499 -0.132454 0 0 0 89.4285 -31.2255 99.5587 -19.7817 -30.3863 -8.51328 13.1325 -26.2126 24.5388 0 0 0 -76.4377 5.11861 -75.9483 15.5094 -36.7978 6.26196 -36.5062 -25.4725 -20.6375 0 0 0 -1.15261 -15.6495 -9.00171 
-24.7425 1.5972 -46.8647 8.99725 4.82647 115.332 -6.34327 -8.88109 13.186 12.8679 18.2474 -2.08994 -2.62406 0.301863 -0.898713 -16.3838 -5.26871 -21.8312 -0.95769 18.9551 0.625204 11.9932 -2.52112 7.81111 2.53226 25.1877 -0.304669 0 0 0 87.312 -32.4478 92.8126 -15.2621 -25.9691 -4.25422 12.4257 -26.3921 24.298 0 0 0 -75.26 -1.22844 -71.9672 12.1668 -32.5843 3.77803 -36.4595 -25.3145 -20.5448 0 0 0 -1.01666 -15.205 -7.8629 
-25.0815 1.6423 -47.0832 9.83687 4.24999 113.286 -5.77128 -8.56561 14.3659 12.816 17.6107 -2.01885 -2.35628 0.7341 -0.0327027 -15.7403 -2.71907 -21.7287 -0.842243 20.1144 0.382212 10.8937 -4.33125 6.73131 3.02054 25.0078 -0.138483 0 0 0 83.7494 -33.5819 86.1856 -12.5941 -23.0043 -2.23513 12.0199 -26.0067 22.7426 0 0 0 -72.9415 -8.13245 -68.4772 10.8639 -30.12 3.38972 -35.9351 -25.934 -19.2297 0 0 0 -0.705384 -14.6225 -6.24215 
-25.3602 1.675 -47.3117 10.6887 3.92562 110.845 -5.44079 -8.08941 15.7192 12.7974 17.1241 -2.02323 -2.18506 0.985512 1.11957 -15.3547 0.0508078 -22.2619 -0.889347 21.2106 0.31826 9.65082 -5.68043 5.99876 3.13876 24.6786 0.308805 0 0 0 79.7817 -34.2943 81.2442 -12.6141 -22.0467 -2.61331 10.3208 -25.0309 20.8097 0 0 0 -70.6322 -11.1165 -65.1755 11.4703 -30.1234 4.53986 -34.4238 -27.4291 -16.9582 0 0 0 -0.458373 -14.085 -4.44045 
-25.6239 1.6775 -47.5653 11.8068 3.57857 107.803 -5.13208 -7.57409 17.384 12.796 16.8325 -2.01956 -2.00385 1.02092 2.5042 -15.1538 2.86642 -22.9262 -0.988194 22.4489 0.0636212 8.37324 -6.85329 5.65645 3.09135 24.2806 0.938746 0 0 0 75.2545 -33.9419 75.5381 -12.6263 -21.5893 -2.77555 9.19185 -23.4608 18.9672 0 0 0 -67.9475 -14.5977 -60.8522 12.0834 -30.1231 5.63002 -33.0457 -28.4182 -14.5796 0 0 0 0.000596201 -13.4218 -2.15786 
-25.88 1.6599 -47.8114 12.8257 3.15765 104.588 -4.89375 -7.06553 19.0051 12.8563 16.6924 -2.06955 -1.89498 0.914945 4.10642 -15.0667 5.3537 -23.5205 -1.17235 23.7004 -0.135203 6.96853 -7.51027 5.11066 3.05177 23.8392 1.45364 0 0 0 71.0609 -32.61 69.7123 -12.4801 -20.9372 -2.68339 8.46648 -21.7036 17.7944 0 0 0 -65.1803 -17.5649 -55.4816 12.642 -29.9194 6.5224 -32.0522 -28.9494 -12.6181 0 0 0 0.498176 -12.6443 0.391392 
-26.1337 1.6273 -48.055 13.6149 2.71656 101.264 -4.73259 -6.51653 20.6655 12.8237 16.5815 -2.16476 -1.71912 0.768317 5.89423 -15.2076 7.62757 -23.8966 -1.30403 24.7195 -0.231405 5.56614 -7.8623 4.67312 2.95765 23.5258 2.15903 0 0 0 66.9674 -30.982 64.2925 -12.4676 -20.5282 -2.56017 8.14845 -20.3531 16.7355 0 0 0 -62.2393 -20.2953 -50.2664 13.234 -29.5993 7.56767 -31.0643 -29.4879 -10.7143 0 0 0 0.962224 -11.9054 2.86651 
-26.3396 1.6147 -48.2735 14.1251 2.19173 97.82 -4.63807 -6.10373 22.0926 12.8271 16.5547 -2.07651 -1.58987 0.615476 7.85146 -15.3367 9.62028 -24.1836 -1.40839 25.4737 -0.201599 4.21949 -7.88472 3.88963 2.86744 23.3616 2.89795 0 0 0 63.3636 -29.2084 60.0342 -12.9634 -20.551 -2.74373 8.60871 -19.4957 15.1753 0 0 0 -59.0744 -22.9505 -45.2185 13.9248 -29.3608 8.66303 -29.8357 -30.0462 -8.62538 0 0 0 1.46048 -11.3164 5.27932 
-26.5806 1.5821 -48.4769 14.317 1.64344 94.5854 -4.62185 -5.85131 23.2625 12.8998 16.6403 -1.89238 -1.45129 0.513932 9.8999 -15.5761 11.3653 -24.3926 -1.50999 26.0482 -0.226842 3.12893 -7.76436 3.12821 2.70215 23.1805 3.61825 0 0 0 60.2985 -27.0494 56.9041 -13.8921 -20.7482 -2.91361 9.08451 -18.7573 13.4783 0 0 0 -55.5673 -25.1895 -39.9981 14.6742 -29.1809 9.65688 -28.3783 -30.6102 -6.29236 0 0 0 2.12326 -10.7272 7.39117 
-26.7665 1.5821 -48.6301 14.3348 1.10413 91.6783 -4.44082 -5.92486 24.2605 12.9152 16.806 -1.84357 -1.37209 0.519262 11.9172 -15.8173 12.5861 -24.6611 -1.46935 26.4922 -0.643023 2.84162 -7.85012 2.58292 2.61098 22.8915 4.10781 0 0 0 58.1268 -24.729 55.1688 -15.3867 -21.5624 -3.40354 10.1372 -18.3882 11.8474 0 0 0 -51.8456 -26.6885 -34.4879 15.4219 -29.2982 10.4764 -26.9052 -31.1333 -3.98548 0 0 0 2.81085 -10.1322 9.06067 
-26.9498 1.5519 -48.7306 14.1633 0.557691 89.0066 -4.12824 -6.1078 25.0113 12.8522 16.9954 -1.62708 -1.33113 0.64777 13.8269 -15.9953 13.5464 -25.2423 -1.54656 26.6508 -0.760726 3.37192 -8.08173 1.76079 2.53142 22.5317 4.37688 0 0 0 56.4351 -22.2136 54.4951 -17.2466 -23.4735 -4.16621 12.3269 -18.941 10.2084 0 0 0 -47.9179 -27.5629 -28.5375 16.1895 -29.5296 11.2338 -25.2625 -31.5696 -1.77401 0 0 0 3.57932 -9.46218 10.1624 
-27.1457 1.5344 -48.7456 14.2458 0.176336 86.4491 -3.86139 -6.40092 25.4746 12.7606 17.1869 -1.22218 -1.42559 0.899667 15.6066 -16.2007 13.9103 -25.9664 -1.69609 26.5126 -0.738128 4.39856 -8.64163 0.819605 2.40951 21.9582 4.57534 0 0 0 56.1265 -19.1801 55.8567 -20.4164 -25.8801 -5.78941 15.7757 -20.5221 8.64772 0 0 0 -43.9867 -27.3312 -22.1788 16.9497 -29.8674 11.8803 -23.4931 -32.0144 0.620584 0 0 0 4.1845 -8.48724 10.151 
-27.334 1.5268 -48.7356 14.1968 -0.0919549 83.9984 -3.59023 -6.65936 25.6646 12.602 17.324 -0.690317 -1.57258 1.20648 17.1931 -16.3692 14.0456 -27.008 -1.88273 26.2095 -0.69841 5.66171 -9.27382 0.357472 2.23124 21.3893 4.8404 0 0 0 56.6801 -16.1604 57.9956 -24.0252 -28.7118 -7.86563 19.1956 -22.5176 7.24747 0 0 0 -40.3339 -26.1966 -16.0007 17.6333 -30.2342 12.4547 -21.6136 -32.5253 3.17439 0 0 0 4.72685 -7.47937 9.538 
-27.4947 1.5243 -48.6829 14.1157 -0.280223 81.6429 -3.37853 -6.94332 25.8218 12.5651 17.4616 -0.185026 -1.86702 1.54168 18.5687 -16.4704 14.0726 -27.872 -2.04034 25.6178 -0.695579 7.06971 -9.89521 -0.251339 2.07904 20.7849 5.00198 0 0 0 58.0898 -12.8465 61.0204 -28.2139 -31.7495 -10.5619 22.872 -24.9435 5.71975 0 0 0 -37.0257 -24.32 -10.0033 18.2817 -30.6486 12.9381 -19.5961 -33.0291 5.86474 0 0 0 5.13515 -6.38912 8.48287 
-27.6956 1.4841 -48.59 14.1461 -0.42826 79.4604 -3.15973 -7.15244 26.0099 12.5139 17.6368 0.224765 -1.93411 1.89847 19.7084 -16.4712 14.2409 -28.8305 -2.2065 24.7596 -0.683097 8.49652 -10.765 -0.288986 2.02162 20.1038 5.08326 0 0 0 60.3829 -8.69491 64.617 -33.0536 -35.1342 -14.1213 25.9407 -28.096 3.92741 0 0 0 -33.9618 -21.4846 -4.39148 18.759 -31.119 13.3511 -17.3857 -33.4787 8.79234 0 0 0 5.40588 -5.15589 6.90015 
-27.8488 1.4766 -48.4644 14.0729 -0.483877 77.5262 -2.83789 -7.28419 26.1395 12.3851 17.8068 0.605404 -2.08874 2.22052 20.6175 -16.3884 14.3507 -29.7322 -2.30408 23.8239 -0.718965 9.92527 -11.6223 -0.354059 2.19692 19.4072 5.01141 0 0 0 63.1039 -4.05371 68.3414 -38.3568 -38.5184 -18.4358 28.3355 -30.8677 1.95407 0 0 0 -31.6342 -18.3198 0.447269 19.1845 -31.4382 13.737 -15.2035 -33.813 11.7281 0 0 0 5.48991 -3.85242 5.16871 
-28.0522 1.4163 -48.3213 14.1302 -0.501426 75.9573 -2.58273 -7.3529 26.1607 12.3214 18.0304 1.03882 -2.25021 2.53134 21.2096 -16.1882 14.4795 -30.4315 -2.45873 22.7663 -0.548537 10.8305 -12.51 -0.294287 2.5463 18.656 4.77303 0 0 0 65.9444 0.0507969 72.368 -43.9328 -41.2132 -23.0215 30.3127 -34.1585 -0.179338 0 0 0 -29.9195 -15.0224 4.37002 19.4647 -31.4882 13.936 -12.8694 -34.0161 14.8255 0 0 0 5.38646 -2.55462 3.39408 
